<?xml version="1.0" encoding="UTF-8" standalone="no"?>
<!-- Created with Inkscape (http://www.inkscape.org/) -->

<svg
   width="256"
   height="256"
   viewBox="0 0 256 256"
   version="1.1"
   id="svg1"
   inkscape:version="1.3.2 (091e20e, 2023-11-25, custom)"
   sodipodi:docname="AvatarMenuCreatorChooseIconFinal.svg"
   inkscape:export-filename="AvatarMenuCreatorChooseIcon.png"
   inkscape:export-xdpi="96"
   inkscape:export-ydpi="96"
   xmlns:inkscape="http://www.inkscape.org/namespaces/inkscape"
   xmlns:sodipodi="http://sodipodi.sourceforge.net/DTD/sodipodi-0.dtd"
   xmlns="http://www.w3.org/2000/svg"
   xmlns:svg="http://www.w3.org/2000/svg">
  <sodipodi:namedview
     id="namedview1"
     pagecolor="#ffffff"
     bordercolor="#666666"
     borderopacity="1.0"
     inkscape:showpageshadow="2"
     inkscape:pageopacity="0.0"
     inkscape:pagecheckerboard="0"
     inkscape:deskcolor="#d1d1d1"
     inkscape:document-units="px"
     inkscape:zoom="1.447575"
     inkscape:cx="277.01501"
     inkscape:cy="213.11504"
     inkscape:window-width="2560"
     inkscape:window-height="1387"
     inkscape:window-x="-8"
     inkscape:window-y="291"
     inkscape:window-maximized="1"
     inkscape:current-layer="layer1" />
  <defs
     id="defs1" />
  <g
     inkscape:label="Layer 1"
     inkscape:groupmode="layer"
     id="layer1">
    <path
       id="path1"
       style="fill:#3eaab9;fill-opacity:1;stroke-width:10"
       d="m 43.491569,32.092622 56.854421,56.854424 a 48,48 0 0 1 55.59903,2e-6 l 56.85443,-56.854426 a 128,128 0 0 0 -169.307881,0 z M 32.38364,43.61211 a 128,128 0 0 0 0,168.89632 l 56.688696,-56.68869 a 48,48 0 0 1 0,-55.51893 z m 11.313709,180.21003 a 128,128 0 0 0 168.896321,0 l -56.6887,-56.6887 a 48,48 0 0 1 -55.51893,0 z M 167.21868,100.30081 a 48,48 0 0 1 0,55.51892 l 56.6887,56.6887 a 128,128 0 0 0 0,-168.896317 z" />
  </g>
</svg>
